<svg width="287" height="349" viewBox="0 0 287 349" fill="none" xmlns="http://www.w3.org/2000/svg">
<g clip-path="url(#clip0_21_362)">
<path d="M0.486059 138.893C0.486059 138.893 5.6077 31.6867 90.3974 46.3067C175.187 60.9268 177.117 2.03885 221.04 0.0135743C263.307 -1.93558 335.067 194.084 236.921 291.417C152.901 374.747 77.5906 359.151 37.1123 295.315C-3.36604 231.479 0.486059 138.893 0.486059 138.893Z" fill="#F5F5FC"/>
<path d="M76.6881 165.203V177.05H73.7141L70.3296 165.203H62.6145V124.618L138.575 125.042V165.317H130.691L127.624 177.05H124.664L124.982 165.211L76.6881 165.203Z" fill="#3A1313"/>
<path d="M133.831 128.59H66.8445V144.132H133.831V128.59Z" fill="#671C1C"/>
<path d="M72.3331 130.126H68.8942V142.501H72.3331V130.126Z" fill="#EEDF56"/>
<path d="M77.5445 130.126H74.1056V142.501H77.5445V130.126Z" fill="#EEDF56"/>
<path d="M80.872 130.359L78.4565 132.807L87.2645 141.499L89.68 139.051L80.872 130.359Z" fill="#EEDF56"/>
<path d="M104.936 134.753H91.1016V137.235H104.936V134.753Z" fill="#EEDF56"/>
<path d="M104.936 138.436H91.1016V142.501H104.936V138.436Z" fill="#EEDF56"/>
<path d="M133.831 146.296H66.8445V161.837H133.831V146.296Z" fill="#671C1C"/>
<path d="M83.2995 147.878H81.1682V160.252H83.2995V147.878Z" fill="#EEDF56"/>
<path d="M80.1895 151.616H78.0582V160.255H80.1895V151.616Z" fill="#EEDF56"/>
<path d="M87.5077 147.878H84.0688V160.252H87.5077V147.878Z" fill="#EEDF56"/>
<path d="M115.042 148.687L109.056 159.518L112.066 161.181L118.052 150.351L115.042 148.687Z" fill="#EEDF56"/>
<path d="M132.352 152.458H118.518V154.94H132.352V152.458Z" fill="#EEDF56"/>
<path d="M132.352 156.142H118.518V160.206H132.352V156.142Z" fill="#EEDF56"/>
<path d="M116.519 117.08H102.685V119.562H116.519V117.08Z" fill="#222122"/>
<path d="M116.519 120.764H102.685V124.828H116.519V120.764Z" fill="#222122"/>
<path d="M143.473 177.05H223.209V61.949H142.413L143.473 177.05Z" fill="#3A1313"/>
<path d="M217.351 67.2799H147.777V100.666H217.351V67.2799Z" fill="#671C1C"/>
<path d="M217.598 140.228H148.024V173.614H217.598V140.228Z" fill="#671C1C"/>
<path d="M217.598 104.067H148.024V137.452H217.598V104.067Z" fill="#671C1C"/>
<path d="M215.6 105.524H149.669V135.509H215.6V105.524Z" fill="#3A1313"/>
<path d="M158.153 71.287H151.607V99.3581H158.153V71.287Z" fill="#EEDF56"/>
<path d="M166.79 71.287H160.244V99.3581H166.79V71.287Z" fill="#EEDF56"/>
<path d="M168.258 144.327H161.712V172.399H168.258V144.327Z" fill="#EEDF56"/>
<path d="M170.589 167.359L170.548 172.173L198.618 172.413L198.659 167.599L170.589 167.359Z" fill="#EEDF56"/>
<path d="M212.128 143.044L200.098 170.7L204.512 172.62L216.543 144.965L212.128 143.044Z" fill="#EEDF56"/>
<path d="M170.898 163.475L170.863 166.931L198.934 167.211L198.969 163.756L170.898 163.475Z" fill="#EEDF56"/>
<path d="M164.985 170.988C165.797 170.988 166.455 170.329 166.455 169.517C166.455 168.705 165.797 168.046 164.985 168.046C164.173 168.046 163.514 168.705 163.514 169.517C163.514 170.329 164.173 170.988 164.985 170.988Z" fill="#671C1C"/>
<path d="M173.32 171.069C173.938 171.069 174.44 170.568 174.44 169.949C174.44 169.331 173.938 168.829 173.32 168.829C172.701 168.829 172.2 169.331 172.2 169.949C172.2 170.568 172.701 171.069 173.32 171.069Z" fill="#671C1C"/>
<path d="M203.223 170.637C203.842 170.637 204.343 170.136 204.343 169.517C204.343 168.898 203.842 168.397 203.223 168.397C202.604 168.397 202.103 168.898 202.103 169.517C202.103 170.136 202.604 170.637 203.223 170.637Z" fill="#671C1C"/>
<path d="M186.557 91.9734L186.461 98.5188L214.529 98.9303L214.625 92.3849L186.557 91.9734Z" fill="#EEDF56"/>
<path d="M186.515 87.5243L186.46 91.27L214.528 91.6815L214.583 87.9359L186.515 87.5243Z" fill="#EEDF56"/>
<path d="M163.517 96.2699C164.329 96.2699 164.987 95.6114 164.987 94.7992C164.987 93.9869 164.329 93.3285 163.517 93.3285C162.704 93.3285 162.046 93.9869 162.046 94.7992C162.046 95.6114 162.704 96.2699 163.517 96.2699Z" fill="#671C1C"/>
<path d="M210.971 97.1915C211.783 97.1915 212.441 96.5331 212.441 95.7208C212.441 94.9086 211.783 94.2501 210.971 94.2501C210.158 94.2501 209.5 94.9086 209.5 95.7208C209.5 96.5331 210.158 97.1915 210.971 97.1915Z" fill="#671C1C"/>
<path d="M210.971 90.7813C211.478 90.7813 211.89 90.3699 211.89 89.8625C211.89 89.355 211.478 88.9436 210.971 88.9436C210.463 88.9436 210.052 89.355 210.052 89.8625C210.052 90.3699 210.463 90.7813 210.971 90.7813Z" fill="#671C1C"/>
<path d="M154.88 96.2699C155.692 96.2699 156.351 95.6114 156.351 94.7992C156.351 93.9869 155.692 93.3285 154.88 93.3285C154.068 93.3285 153.409 93.9869 153.409 94.7992C153.409 95.6114 154.068 96.2699 154.88 96.2699Z" fill="#671C1C"/>
<path d="M182.565 105.252H180.937V136.069H182.565V105.252Z" fill="#671C1C"/>
<path d="M176.239 122.952C176.912 122.952 177.457 122.407 177.457 121.734C177.457 121.061 176.912 120.516 176.239 120.516C175.567 120.516 175.021 121.061 175.021 121.734C175.021 122.407 175.567 122.952 176.239 122.952Z" fill="#671C1C"/>
<path d="M186.183 122.952C186.856 122.952 187.401 122.407 187.401 121.734C187.401 121.061 186.856 120.516 186.183 120.516C185.511 120.516 184.966 121.061 184.966 121.734C184.966 122.407 185.511 122.952 186.183 122.952Z" fill="#671C1C"/>
<path d="M197.476 285.673L204.272 258.76H197.476L195.301 285.673H197.476Z" fill="#3A1313"/>
<path d="M236.079 258.216L243.69 256.585L244.778 280.779H242.331L236.079 258.216Z" fill="#3A1313"/>
<path d="M196.932 236.46C196.932 236.46 184.427 239.178 184.699 247.606C184.971 256.033 190.408 259.023 208.35 259.567C226.292 260.111 242.603 258.479 248.584 254.402C254.564 250.324 256.196 238.091 255.652 234.013C255.108 229.935 251.03 208.731 255.652 196.77C260.273 184.808 262.176 177.197 261.632 176.109C261.089 175.022 258.098 167.41 248.584 175.294C239.069 183.177 226.02 197.585 224.117 214.44C223.628 218.771 215.72 215.799 210.525 215.799C205.33 215.799 199.107 214.984 195.301 220.964C191.245 227.342 192.311 233.741 196.932 236.46Z" fill="#222122"/>
<path d="M189.593 239.45C189.593 239.45 223.527 249.878 239.341 244.343C255.959 238.52 254.6 244.912 255.521 239.82C256.016 237.085 255.853 232.447 255.23 231.167C254.782 230.248 248.084 232.798 241.796 235.084C230.131 239.347 207.543 237.55 201.834 233.472C196.125 229.394 194.412 222.941 194.412 222.941C194.412 222.941 190.063 230.104 195.834 235.296C197.487 236.786 194.298 237.142 192.276 237.909C190.253 238.675 189.593 239.45 189.593 239.45Z" fill="#BDAEBD"/>
<path d="M30.1339 285.238L38.5422 310.46H50.6395L57.6124 285.238L42.2339 279.904L30.1339 285.238Z" fill="#F09642"/>
<path d="M37.6886 264.626C37.6886 264.626 6.04537 268.394 0.00488281 299.8C0.00488281 299.8 52.5098 291.009 47.2332 277.441C41.9566 263.873 37.6886 264.626 37.6886 264.626Z" fill="#3A5F2D"/>
<path d="M51.5284 271.691C51.5284 271.691 47.5785 235.756 16.1418 229.068C16.1418 229.068 25.2379 288.663 38.7733 282.601C52.3086 276.538 51.5284 271.691 51.5284 271.691Z" fill="#3A5F2D"/>
<path d="M39.366 266.241C39.366 266.241 48.4185 242.046 68.3478 244.169C74.7906 244.854 71.224 257.49 71.224 257.49L65.2623 251.14C65.2623 251.14 58.3084 279.458 51.5366 278.713C44.7649 277.968 39.366 266.241 39.366 266.241Z" fill="#3A5F2D"/>
<path d="M42.9924 283.036C42.9924 283.036 69.688 293.814 65.4173 313.891C65.4173 313.891 79.5833 299.735 65.8794 279.909C52.1755 260.083 47.6057 272.463 47.6057 272.463L42.9924 283.036Z" fill="#3A5F2D"/>
<path d="M53.6706 262.421C53.6706 262.421 80.5837 257.8 84.637 261.388C88.6902 264.977 81.6466 280.583 76.7343 283.036C76.7343 283.036 78.6563 276.943 78.6563 273.099C78.6563 269.256 64.5636 281.002 63.0685 281.002C61.5733 281.002 51.5366 267.334 51.5366 267.334L53.6706 262.421Z" fill="#3A5F2D"/>
<path d="M41.5978 275.416C41.5978 275.416 54.9782 254.252 60.9589 248.804C64.3488 245.716 67.9372 248.486 70.2017 251.477" stroke="#5BCC34" stroke-width="0.815547" stroke-linecap="round" stroke-linejoin="round"/>
<path d="M41.5978 275.416C41.5978 275.416 69.9054 264.612 77.9766 264.08C82.5518 263.778 83.6175 267.924 80.3607 276.557" stroke="#5BCC34" stroke-width="0.815547" stroke-linecap="round" stroke-linejoin="round"/>
<path d="M41.5978 275.416C41.5978 275.416 54.4535 279.684 60.9996 284.438C63.3729 286.165 68.5706 291.585 68.2036 301.502" stroke="#5BCC34" stroke-width="0.815547" stroke-linecap="round" stroke-linejoin="round"/>
<path d="M21.6957 235.894C21.6957 235.894 24.474 243.463 30.5308 248.823C33.9642 251.863 39.5942 264.99 41.5977 275.416" stroke="#5BCC34" stroke-width="0.815547" stroke-linecap="round" stroke-linejoin="round"/>
<path d="M8.32886 293.589C8.32886 293.589 13.1188 286.646 19.8797 282.206C26.3497 277.957 31.5692 274.578 41.5977 275.41" stroke="#5BCC34" stroke-width="0.815547" stroke-linecap="round" stroke-linejoin="round"/>
</g>
<defs>
<clipPath id="clip0_21_362">
<rect width="286.188" height="348.641" fill="white"/>
</clipPath>
</defs>
</svg>
